STARTFONT 2.1
COMMENT The X10 name for this font was "/usr/lib/X/xfont/6x13b"
COMMENT ""
COMMENT Characters above 127 designed and made by
COMMENT Thomas Bagli (pyramid!pcsbst!tom@uunet.UU.NET)
COMMENT PCS Computer Systeme, West Germany
COMMENT ""
FONT -Misc-Fixed-Bold-R-SemiCondensed--13-120-75-75-C-60-iso10646-0400
SIZE 13 78 78
FONTBOUNDINGBOX 6 13 0 -2
STARTPROPERTIES 23
FONTNAME_REGISTRY ""
FOUNDRY "Misc"
FAMILY_NAME "Fixed"
WEIGHT_NAME "Bold"
SLANT "R"
SETWIDTH_NAME "SemiCondensed"
ADD_STYLE_NAME ""
PIXEL_SIZE 13
POINT_SIZE 120
RESOLUTION_X 75
RESOLUTION_Y 75
SPACING "C"
AVERAGE_WIDTH 60
CHARSET_REGISTRY "iso10646"
CHARSET_ENCODING "0400"
DEFAULT_CHAR 0
FONT_DESCENT 2
FONT_ASCENT 11
COPYRIGHT "Public domain font.  Share and enjoy."
COPYRIGHT2 "Cyrillic and special glyphs copyright 2000 Dmitry Yu. Bolkhovityanov, bolkhov@inp.nsk.su"
SOURCEDATE "Tue Aug  1 20:01:23 2000"
PKGVERSION "1.1"
ASSEMBLER "cvtbdf.pl (Linux)"
ENDPROPERTIES
CHARS 340
STARTCHAR null
ENCODING 0
SWIDTH 1 0
DWIDTH 6 0
BBX 6 13 0 -2
BITMAP
00
00
78
78
78
78
78
78
78
78
78
00
00
ENDCHAR
STARTCHAR ctrlA
ENCODING 1
SWIDTH 1 0
DWIDTH 6 0
BBX 6 13 0 -2
BITMAP
00
00
00
00
00
30
78
FC
78
30
00
00
00
ENDCHAR
STARTCHAR ctrlB
ENCODING 2
SWIDTH 1 0
DWIDTH 6 0
BBX 6 13 0 -2
BITMAP
00
54
A8
54
A8
54
A8
54
A8
54
A8
54
A8
ENDCHAR
STARTCHAR ctrlC
ENCODING 3
SWIDTH 1 0
DWIDTH 6 0
BBX 6 13 0 -2
BITMAP
00
00
00
D8
D8
F8
D8
D8
3C
18
18
18
18
ENDCHAR
STARTCHAR ctrlD
ENCODING 4
SWIDTH 1 0
DWIDTH 6 0
BBX 6 13 0 -2
BITMAP
00
00
00
F0
C0
E0
C0
C0
3C
30
38
30
30
ENDCHAR
STARTCHAR ctrlE
ENCODING 5
SWIDTH 1 0
DWIDTH 6 0
BBX 6 13 0 -2
BITMAP
00
00
00
78
C8
C0
C8
78
78
6C
78
68
6C
ENDCHAR
STARTCHAR ctrlF
ENCODING 6
SWIDTH 1 0
DWIDTH 6 0
BBX 6 13 0 -2
BITMAP
00
00
00
C0
C0
C0
C0
F0
3C
30
38
30
30
ENDCHAR
STARTCHAR ctrlG
ENCODING 7
SWIDTH 1 0
DWIDTH 6 0
BBX 6 13 0 -2
BITMAP
00
00
70
D8
D8
70
00
00
00
00
00
00
00
ENDCHAR
STARTCHAR ctrlH
ENCODING 8
SWIDTH 1 0
DWIDTH 6 0
BBX 6 13 0 -2
BITMAP
00
00
00
00
30
30
FC
30
30
00
FC
00
00
ENDCHAR
STARTCHAR ctrlI
ENCODING 9
SWIDTH 1 0
DWIDTH 6 0
BBX 6 13 0 -2
BITMAP
00
00
00
D8
F8
F8
D8
D8
30
30
30
30
3C
ENDCHAR
STARTCHAR ctrlJ
ENCODING 10
SWIDTH 1 0
DWIDTH 6 0
BBX 6 13 0 -2
BITMAP
00
00
00
D8
D8
D8
70
20
3C
18
18
18
18
ENDCHAR
STARTCHAR ldcornsqlr
ENCODING 11
SWIDTH 1 0
DWIDTH 6 0
BBX 6 13 0 -2
BITMAP
30
30
30
30
30
30
F0
F0
00
00
00
00
00
ENDCHAR
STARTCHAR ldcornsqur
ENCODING 12
SWIDTH 1 0
DWIDTH 6 0
BBX 6 13 0 -2
BITMAP
00
00
00
00
00
00
F0
F0
30
30
30
30
30
ENDCHAR
STARTCHAR ldcornsqul
ENCODING 13
SWIDTH 1 0
DWIDTH 6 0
BBX 6 13 0 -2
BITMAP
00
00
00
00
00
00
3C
3C
30
30
30
30
30
ENDCHAR
STARTCHAR ldcornsqll
ENCODING 14
SWIDTH 1 0
DWIDTH 6 0
BBX 6 13 0 -2
BITMAP
30
30
30
30
30
30
3C
3C
00
00
00
00
00
ENDCHAR
STARTCHAR ldcross
ENCODING 15
SWIDTH 1 0
DWIDTH 6 0
BBX 6 13 0 -2
BITMAP
30
30
30
30
30
30
FC
FC
30
30
30
30
30
ENDCHAR
STARTCHAR ctrlP
ENCODING 16
SWIDTH 1 0
DWIDTH 6 0
BBX 6 13 0 -2
BITMAP
00
00
FC
FC
00
00
00
00
00
00
00
00
00
ENDCHAR
STARTCHAR ctrlQ
ENCODING 17
SWIDTH 1 0
DWIDTH 6 0
BBX 6 13 0 -2
BITMAP
00
00
00
00
FC
FC
00
00
00
00
00
00
00
ENDCHAR
STARTCHAR ldhorizontal
ENCODING 18
SWIDTH 1 0
DWIDTH 6 0
BBX 6 13 0 -2
BITMAP
00
00
00
00
00
00
FC
FC
00
00
00
00
00
ENDCHAR
STARTCHAR ctrlS
ENCODING 19
SWIDTH 1 0
DWIDTH 6 0
BBX 6 13 0 -2
BITMAP
00
00
00
00
00
00
00
00
FC
FC
00
00
00
ENDCHAR
STARTCHAR ctrlT
ENCODING 20
SWIDTH 1 0
DWIDTH 6 0
BBX 6 13 0 -2
BITMAP
00
00
00
00
00
00
00
00
00
00
FC
FC
00
ENDCHAR
STARTCHAR ldteelft
ENCODING 21
SWIDTH 1 0
DWIDTH 6 0
BBX 6 13 0 -2
BITMAP
30
30
30
30
30
30
3C
3C
30
30
30
30
30
ENDCHAR
STARTCHAR ldteert
ENCODING 22
SWIDTH 1 0
DWIDTH 6 0
BBX 6 13 0 -2
BITMAP
30
30
30
30
30
30
F0
F0
30
30
30
30
30
ENDCHAR
STARTCHAR ldteebt
ENCODING 23
SWIDTH 1 0
DWIDTH 6 0
BBX 6 13 0 -2
BITMAP
30
30
30
30
30
30
FC
FC
00
00
00
00
00
ENDCHAR
STARTCHAR ldteetp
ENCODING 24
SWIDTH 1 0
DWIDTH 6 0
BBX 6 13 0 -2
BITMAP
00
00
00
00
00
00
FC
FC
30
30
30
30
30
ENDCHAR
STARTCHAR ldvertical
ENCODING 25
SWIDTH 1 0
DWIDTH 6 0
BBX 6 13 0 -2
BITMAP
30
30
30
30
30
30
30
30
30
30
30
30
30
ENDCHAR
STARTCHAR ctrlZ
ENCODING 26
SWIDTH 1 0
DWIDTH 6 0
BBX 6 13 0 -2
BITMAP
00
00
0C
18
30
60
30
18
0C
00
FC
00
00
ENDCHAR
STARTCHAR ctrlBRL
ENCODING 27
SWIDTH 1 0
DWIDTH 6 0
BBX 6 13 0 -2
BITMAP
00
00
00
C0
60
30
18
30
60
C0
FC
00
00
ENDCHAR
STARTCHAR ctrlBSLASH
ENCODING 28
SWIDTH 1 0
DWIDTH 6 0
BBX 6 13 0 -2
BITMAP
00
00
00
00
00
FC
78
78
78
78
D8
00
00
ENDCHAR
STARTCHAR ctrlBRR
ENCODING 29
SWIDTH 1 0
DWIDTH 6 0
BBX 6 13 0 -2
BITMAP
00
00
00
00
00
0C
FC
30
FC
C0
00
00
00
ENDCHAR
STARTCHAR ctrlCARET
ENCODING 30
SWIDTH 1 0
DWIDTH 6 0
BBX 6 13 0 -2
BITMAP
00
00
38
6C
60
60
F8
60
60
6C
F8
00
00
ENDCHAR
STARTCHAR ctrlUND
ENCODING 31
SWIDTH 1 0
DWIDTH 6 0
BBX 6 13 0 -2
BITMAP
00
00
00
00
00
00
00
00
30
00
00
00
00
ENDCHAR
STARTCHAR space
ENCODING 32
SWIDTH 1 0
DWIDTH 6 0
BBX 6 13 0 -2
BITMAP
00
00
00
00
00
00
00
00
00
00
00
00
00
ENDCHAR
STARTCHAR exclam
ENCODING 33
SWIDTH 1 0
DWIDTH 6 0
BBX 6 13 0 -2
BITMAP
00
00
30
30
30
30
30
30
30
00
30
00
00
ENDCHAR
STARTCHAR quotedbl
ENCODING 34
SWIDTH 1 0
DWIDTH 6 0
BBX 6 13 0 -2
BITMAP
00
00
78
78
78
00
00
00
00
00
00
00
00
ENDCHAR
STARTCHAR numbersign
ENCODING 35
SWIDTH 1 0
DWIDTH 6 0
BBX 6 13 0 -2
BITMAP
00
00
00
78
78
FC
78
FC
78
78
00
00
00
ENDCHAR
STARTCHAR dollar
ENCODING 36
SWIDTH 1 0
DWIDTH 6 0
BBX 6 13 0 -2
BITMAP
00
00
00
30
78
F0
78
3C
78
30
00
00
00
ENDCHAR
STARTCHAR percent
ENCODING 37
SWIDTH 1 0
DWIDTH 6 0
BBX 6 13 0 -2
BITMAP
00
00
6C
FC
78
18
30
60
78
FC
D8
00
00
ENDCHAR
STARTCHAR ampersand
ENCODING 38
SWIDTH 1 0
DWIDTH 6 0
BBX 6 13 0 -2
BITMAP
00
00
00
00
60
F0
F0
60
FC
D8
7C
00
00
ENDCHAR
STARTCHAR quotesingle
ENCODING 39
SWIDTH 1 0
DWIDTH 6 0
BBX 6 13 0 -2
BITMAP
00
00
30
30
30
00
00
00
00
00
00
00
00
ENDCHAR
STARTCHAR parenleft
ENCODING 40
SWIDTH 1 0
DWIDTH 6 0
BBX 6 13 0 -2
BITMAP
00
00
18
30
30
60
60
60
30
30
18
00
00
ENDCHAR
STARTCHAR parenright
ENCODING 41
SWIDTH 1 0
DWIDTH 6 0
BBX 6 13 0 -2
BITMAP
00
00
60
30
30
18
18
18
30
30
60
00
00
ENDCHAR
STARTCHAR asterisk
ENCODING 42
SWIDTH 1 0
DWIDTH 6 0
BBX 6 13 0 -2
BITMAP
00
00
00
00
CC
78
FC
78
CC
00
00
00
00
ENDCHAR
STARTCHAR plus
ENCODING 43
SWIDTH 1 0
DWIDTH 6 0
BBX 6 13 0 -2
BITMAP
00
00
00
00
30
30
FC
30
30
00
00
00
00
ENDCHAR
STARTCHAR comma
ENCODING 44
SWIDTH 1 0
DWIDTH 6 0
BBX 6 13 0 -2
BITMAP
00
00
00
00
00
00
00
00
00
38
30
60
00
ENDCHAR
STARTCHAR minus
ENCODING 45
SWIDTH 1 0
DWIDTH 6 0
BBX 6 13 0 -2
BITMAP
00
00
00
00
00
00
FC
00
00
00
00
00
00
ENDCHAR
STARTCHAR period
ENCODING 46
SWIDTH 1 0
DWIDTH 6 0
BBX 6 13 0 -2
BITMAP
00
00
00
00
00
00
00
00
00
30
78
30
00
ENDCHAR
STARTCHAR slash
ENCODING 47
SWIDTH 1 0
DWIDTH 6 0
BBX 6 13 0 -2
BITMAP
00
00
0C
0C
18
18
30
60
60
C0
C0
00
00
ENDCHAR
STARTCHAR zero
ENCODING 48
SWIDTH 1 0
DWIDTH 6 0
BBX 6 13 0 -2
BITMAP
00
00
30
78
CC
CC
CC
CC
CC
78
30
00
00
ENDCHAR
STARTCHAR one
ENCODING 49
SWIDTH 1 0
DWIDTH 6 0
BBX 6 13 0 -2
BITMAP
00
00
30
70
F0
30
30
30
30
30
FC
00
00
ENDCHAR
STARTCHAR two
ENCODING 50
SWIDTH 1 0
DWIDTH 6 0
BBX 6 13 0 -2
BITMAP
00
00
78
CC
CC
0C
18
30
60
C0
FC
00
00
ENDCHAR
STARTCHAR three
ENCODING 51
SWIDTH 1 0
DWIDTH 6 0
BBX 6 13 0 -2
BITMAP
00
00
FC
0C
18
30
78
0C
0C
CC
78
00
00
ENDCHAR
STARTCHAR four
ENCODING 52
SWIDTH 1 0
DWIDTH 6 0
BBX 6 13 0 -2
BITMAP
00
00
18
18
38
78
58
D8
FC
18
18
00
00
ENDCHAR
STARTCHAR five
ENCODING 53
SWIDTH 1 0
DWIDTH 6 0
BBX 6 13 0 -2
BITMAP
00
00
FC
C0
C0
F8
EC
0C
0C
CC
78
00
00
ENDCHAR
STARTCHAR six
ENCODING 54
SWIDTH 1 0
DWIDTH 6 0
BBX 6 13 0 -2
BITMAP
00
00
38
60
C0
C0
F8
EC
CC
CC
78
00
00
ENDCHAR
STARTCHAR seven
ENCODING 55
SWIDTH 1 0
DWIDTH 6 0
BBX 6 13 0 -2
BITMAP
00
00
FC
0C
18
18
30
30
60
60
60
00
00
ENDCHAR
STARTCHAR eight
ENCODING 56
SWIDTH 1 0
DWIDTH 6 0
BBX 6 13 0 -2
BITMAP
00
00
78
CC
CC
CC
78
CC
CC
CC
78
00
00
ENDCHAR
STARTCHAR nine
ENCODING 57
SWIDTH 1 0
DWIDTH 6 0
BBX 6 13 0 -2
BITMAP
00
00
78
CC
CC
DC
7C
0C
0C
18
70
00
00
ENDCHAR
STARTCHAR colon
ENCODING 58
SWIDTH 1 0
DWIDTH 6 0
BBX 6 13 0 -2
BITMAP
00
00
00
30
78
30
00
00
30
78
30
00
00
ENDCHAR
STARTCHAR semicolon
ENCODING 59
SWIDTH 1 0
DWIDTH 6 0
BBX 6 13 0 -2
BITMAP
00
00
00
00
30
78
30
00
00
38
30
60
00
ENDCHAR
STARTCHAR less
ENCODING 60
SWIDTH 1 0
DWIDTH 6 0
BBX 6 13 0 -2
BITMAP
00
00
0C
18
30
60
C0
60
30
18
0C
00
00
ENDCHAR
STARTCHAR equal
ENCODING 61
SWIDTH 1 0
DWIDTH 6 0
BBX 6 13 0 -2
BITMAP
00
00
00
00
00
FC
00
00
FC
00
00
00
00
ENDCHAR
STARTCHAR greater
ENCODING 62
SWIDTH 1 0
DWIDTH 6 0
BBX 6 13 0 -2
BITMAP
00
00
C0
60
30
18
0C
18
30
60
C0
00
00
ENDCHAR
STARTCHAR question
ENCODING 63
SWIDTH 1 0
DWIDTH 6 0
BBX 6 13 0 -2
BITMAP
00
00
78
CC
CC
0C
18
30
30
00
30
00
00
ENDCHAR
STARTCHAR at
ENCODING 64
SWIDTH 1 0
DWIDTH 6 0
BBX 6 13 0 -2
BITMAP
00
00
78
CC
CC
DC
FC
FC
F8
C0
7C
00
00
ENDCHAR
STARTCHAR A
ENCODING 65
SWIDTH 1 0
DWIDTH 6 0
BBX 6 13 0 -2
BITMAP
00
00
30
78
CC
CC
CC
FC
CC
CC
CC
00
00
ENDCHAR
STARTCHAR B
ENCODING 66
SWIDTH 1 0
DWIDTH 6 0
BBX 6 13 0 -2
BITMAP
00
00
F8
6C
6C
6C
78
6C
6C
6C
F8
00
00
ENDCHAR
STARTCHAR C
ENCODING 67
SWIDTH 1 0
DWIDTH 6 0
BBX 6 13 0 -2
BITMAP
00
00
78
CC
C0
C0
C0
C0
C0
CC
78
00
00
ENDCHAR
STARTCHAR D
ENCODING 68
SWIDTH 1 0
DWIDTH 6 0
BBX 6 13 0 -2
BITMAP
00
00
F8
6C
6C
6C
6C
6C
6C
6C
F8
00
00
ENDCHAR
STARTCHAR E
ENCODING 69
SWIDTH 1 0
DWIDTH 6 0
BBX 6 13 0 -2
BITMAP
00
00
FC
C0
C0
C0
F8
C0
C0
C0
FC
00
00
ENDCHAR
STARTCHAR F
ENCODING 70
SWIDTH 1 0
DWIDTH 6 0
BBX 6 13 0 -2
BITMAP
00
00
FC
C0
C0
C0
F8
C0
C0
C0
C0
00
00
ENDCHAR
STARTCHAR G
ENCODING 71
SWIDTH 1 0
DWIDTH 6 0
BBX 6 13 0 -2
BITMAP
00
00
78
CC
C0
C0
C0
DC
CC
CC
78
00
00
ENDCHAR
STARTCHAR H
ENCODING 72
SWIDTH 1 0
DWIDTH 6 0
BBX 6 13 0 -2
BITMAP
00
00
CC
CC
CC
CC
FC
CC
CC
CC
CC
00
00
ENDCHAR
STARTCHAR I
ENCODING 73
SWIDTH 1 0
DWIDTH 6 0
BBX 6 13 0 -2
BITMAP
00
00
78
30
30
30
30
30
30
30
78
00
00
ENDCHAR
STARTCHAR J
ENCODING 74
SWIDTH 1 0
DWIDTH 6 0
BBX 6 13 0 -2
BITMAP
00
00
3C
0C
0C
0C
0C
0C
0C
CC
78
00
00
ENDCHAR
STARTCHAR K
ENCODING 75
SWIDTH 1 0
DWIDTH 6 0
BBX 6 13 0 -2
BITMAP
00
00
CC
CC
D8
F0
E0
F0
D8
CC
CC
00
00
ENDCHAR
STARTCHAR L
ENCODING 76
SWIDTH 1 0
DWIDTH 6 0
BBX 6 13 0 -2
BITMAP
00
00
C0
C0
C0
C0
C0
C0
C0
C0
FC
00
00
ENDCHAR
STARTCHAR M
ENCODING 77
SWIDTH 1 0
DWIDTH 6 0
BBX 6 13 0 -2
BITMAP
00
00
CC
CC
FC
FC
FC
CC
CC
CC
CC
00
00
ENDCHAR
STARTCHAR N
ENCODING 78
SWIDTH 1 0
DWIDTH 6 0
BBX 6 13 0 -2
BITMAP
00
00
CC
EC
EC
FC
FC
DC
DC
CC
CC
00
00
ENDCHAR
STARTCHAR O
ENCODING 79
SWIDTH 1 0
DWIDTH 6 0
BBX 6 13 0 -2
BITMAP
00
00
78
CC
CC
CC
CC
CC
CC
CC
78
00
00
ENDCHAR
STARTCHAR P
ENCODING 80
SWIDTH 1 0
DWIDTH 6 0
BBX 6 13 0 -2
BITMAP
00
00
F8
CC
CC
CC
F8
C0
C0
C0
C0
00
00
ENDCHAR
STARTCHAR Q
ENCODING 81
SWIDTH 1 0
DWIDTH 6 0
BBX 6 13 0 -2
BITMAP
00
00
78
CC
CC
CC
CC
CC
CC
FC
78
0C
00
ENDCHAR
STARTCHAR R
ENCODING 82
SWIDTH 1 0
DWIDTH 6 0
BBX 6 13 0 -2
BITMAP
00
00
F8
CC
CC
CC
F8
F0
D8
CC
CC
00
00
ENDCHAR
STARTCHAR S
ENCODING 83
SWIDTH 1 0
DWIDTH 6 0
BBX 6 13 0 -2
BITMAP
00
00
78
CC
C0
C0
78
0C
0C
CC
78
00
00
ENDCHAR
STARTCHAR T
ENCODING 84
SWIDTH 1 0
DWIDTH 6 0
BBX 6 13 0 -2
BITMAP
00
00
FC
30
30
30
30
30
30
30
30
00
00
ENDCHAR
STARTCHAR U
ENCODING 85
SWIDTH 1 0
DWIDTH 6 0
BBX 6 13 0 -2
BITMAP
00
00
CC
CC
CC
CC
CC
CC
CC
CC
78
00
00
ENDCHAR
STARTCHAR V
ENCODING 86
SWIDTH 1 0
DWIDTH 6 0
BBX 6 13 0 -2
BITMAP
00
00
CC
CC
CC
CC
78
78
78
30
30
00
00
ENDCHAR
STARTCHAR W
ENCODING 87
SWIDTH 1 0
DWIDTH 6 0
BBX 6 13 0 -2
BITMAP
00
00
CC
CC
CC
CC
FC
FC
FC
FC
CC
00
00
ENDCHAR
STARTCHAR X
ENCODING 88
SWIDTH 1 0
DWIDTH 6 0
BBX 6 13 0 -2
BITMAP
00
00
CC
CC
78
78
30
78
78
CC
CC
00
00
ENDCHAR
STARTCHAR Y
ENCODING 89
SWIDTH 1 0
DWIDTH 6 0
BBX 6 13 0 -2
BITMAP
00
00
CC
CC
78
78
30
30
30
30
30
00
00
ENDCHAR
STARTCHAR Z
ENCODING 90
SWIDTH 1 0
DWIDTH 6 0
BBX 6 13 0 -2
BITMAP
00
00
FC
0C
18
18
30
60
60
C0
FC
00
00
ENDCHAR
STARTCHAR bracketleft
ENCODING 91
SWIDTH 1 0
DWIDTH 6 0
BBX 6 13 0 -2
BITMAP
00
00
78
60
60
60
60
60
60
60
78
00
00
ENDCHAR
STARTCHAR backslash
ENCODING 92
SWIDTH 1 0
DWIDTH 6 0
BBX 6 13 0 -2
BITMAP
00
00
C0
C0
60
60
30
18
18
0C
0C
00
00
ENDCHAR
STARTCHAR bracketright
ENCODING 93
SWIDTH 1 0
DWIDTH 6 0
BBX 6 13 0 -2
BITMAP
00
00
78
18
18
18
18
18
18
18
78
00
00
ENDCHAR
STARTCHAR asciicircum
ENCODING 94
SWIDTH 1 0
DWIDTH 6 0
BBX 6 13 0 -2
BITMAP
00
00
30
78
CC
00
00
00
00
00
00
00
00
ENDCHAR
STARTCHAR underscore
ENCODING 95
SWIDTH 1 0
DWIDTH 6 0
BBX 6 13 0 -2
BITMAP
00
00
00
00
00
00
00
00
00
00
00
FC
00
ENDCHAR
STARTCHAR grave
ENCODING 96
SWIDTH 1 0
DWIDTH 6 0
BBX 6 13 0 -2
BITMAP
00
60
30
00
00
00
00
00
00
00
00
00
00
ENDCHAR
STARTCHAR a
ENCODING 97
SWIDTH 1 0
DWIDTH 6 0
BBX 6 13 0 -2
BITMAP
00
00
00
00
00
78
0C
7C
CC
DC
7C
00
00
ENDCHAR
STARTCHAR b
ENCODING 98
SWIDTH 1 0
DWIDTH 6 0
BBX 6 13 0 -2
BITMAP
00
00
C0
C0
C0
F8
EC
CC
CC
EC
F8
00
00
ENDCHAR
STARTCHAR c
ENCODING 99
SWIDTH 1 0
DWIDTH 6 0
BBX 6 13 0 -2
BITMAP
00
00
00
00
00
78
CC
C0
C0
CC
78
00
00
ENDCHAR
STARTCHAR d
ENCODING 100
SWIDTH 1 0
DWIDTH 6 0
BBX 6 13 0 -2
BITMAP
00
00
0C
0C
0C
7C
DC
CC
CC
DC
7C
00
00
ENDCHAR
STARTCHAR e
ENCODING 101
SWIDTH 1 0
DWIDTH 6 0
BBX 6 13 0 -2
BITMAP
00
00
00
00
00
78
CC
FC
C0
C0
78
00
00
ENDCHAR
STARTCHAR f
ENCODING 102
SWIDTH 1 0
DWIDTH 6 0
BBX 6 13 0 -2
BITMAP
00
00
38
6C
60
60
F8
60
60
60
60
00
00
ENDCHAR
STARTCHAR g
ENCODING 103
SWIDTH 1 0
DWIDTH 6 0
BBX 6 13 0 -2
BITMAP
00
00
00
00
00
7C
D8
D8
70
C0
78
CC
78
ENDCHAR
STARTCHAR h
ENCODING 104
SWIDTH 1 0
DWIDTH 6 0
BBX 6 13 0 -2
BITMAP
00
00
C0
C0
C0
F8
EC
CC
CC
CC
CC
00
00
ENDCHAR
STARTCHAR i
ENCODING 105
SWIDTH 1 0
DWIDTH 6 0
BBX 6 13 0 -2
BITMAP
00
00
00
30
00
70
30
30
30
30
78
00
00
ENDCHAR
STARTCHAR j
ENCODING 106
SWIDTH 1 0
DWIDTH 6 0
BBX 6 13 0 -2
BITMAP
00
00
00
18
00
38
18
18
18
18
D8
D8
70
ENDCHAR
STARTCHAR k
ENCODING 107
SWIDTH 1 0
DWIDTH 6 0
BBX 6 13 0 -2
BITMAP
00
00
C0
C0
C0
D8
F0
E0
F0
D8
CC
00
00
ENDCHAR
STARTCHAR l
ENCODING 108
SWIDTH 1 0
DWIDTH 6 0
BBX 6 13 0 -2
BITMAP
00
00
70
30
30
30
30
30
30
30
78
00
00
ENDCHAR
STARTCHAR m
ENCODING 109
SWIDTH 1 0
DWIDTH 6 0
BBX 6 13 0 -2
BITMAP
00
00
00
00
00
F8
FC
FC
FC
FC
CC
00
00
ENDCHAR
STARTCHAR n
ENCODING 110
SWIDTH 1 0
DWIDTH 6 0
BBX 6 13 0 -2
BITMAP
00
00
00
00
00
F8
EC
CC
CC
CC
CC
00
00
ENDCHAR
STARTCHAR o
ENCODING 111
SWIDTH 1 0
DWIDTH 6 0
BBX 6 13 0 -2
BITMAP
00
00
00
00
00
78
CC
CC
CC
CC
78
00
00
ENDCHAR
STARTCHAR p
ENCODING 112
SWIDTH 1 0
DWIDTH 6 0
BBX 6 13 0 -2
BITMAP
00
00
00
00
00
F8
EC
CC
EC
F8
C0
C0
C0
ENDCHAR
STARTCHAR q
ENCODING 113
SWIDTH 1 0
DWIDTH 6 0
BBX 6 13 0 -2
BITMAP
00
00
00
00
00
7C
DC
CC
DC
7C
0C
0C
0C
ENDCHAR
STARTCHAR r
ENCODING 114
SWIDTH 1 0
DWIDTH 6 0
BBX 6 13 0 -2
BITMAP
00
00
00
00
00
F8
EC
C0
C0
C0
C0
00
00
ENDCHAR
STARTCHAR s
ENCODING 115
SWIDTH 1 0
DWIDTH 6 0
BBX 6 13 0 -2
BITMAP
00
00
00
00
00
78
CC
70
18
CC
78
00
00
ENDCHAR
STARTCHAR t
ENCODING 116
SWIDTH 1 0
DWIDTH 6 0
BBX 6 13 0 -2
BITMAP
00
00
00
60
60
F8
60
60
60
6C
38
00
00
ENDCHAR
STARTCHAR u
ENCODING 117
SWIDTH 1 0
DWIDTH 6 0
BBX 6 13 0 -2
BITMAP
00
00
00
00
00
CC
CC
CC
CC
DC
7C
00
00
ENDCHAR
STARTCHAR v
ENCODING 118
SWIDTH 1 0
DWIDTH 6 0
BBX 6 13 0 -2
BITMAP
00
00
00
00
00
CC
CC
CC
78
78
30
00
00
ENDCHAR
STARTCHAR w
ENCODING 119
SWIDTH 1 0
DWIDTH 6 0
BBX 6 13 0 -2
BITMAP
00
00
00
00
00
CC
CC
FC
FC
FC
78
00
00
ENDCHAR
STARTCHAR x
ENCODING 120
SWIDTH 1 0
DWIDTH 6 0
BBX 6 13 0 -2
BITMAP
00
00
00
00
00
CC
78
30
30
78
CC
00
00
ENDCHAR
STARTCHAR y
ENCODING 121
SWIDTH 1 0
DWIDTH 6 0
BBX 6 13 0 -2
BITMAP
00
00
00
00
00
CC
CC
CC
DC
7C
0C
CC
78
ENDCHAR
STARTCHAR z
ENCODING 122
SWIDTH 1 0
DWIDTH 6 0
BBX 6 13 0 -2
BITMAP
00
00
00
00
00
FC
18
30
60
C0
FC
00
00
ENDCHAR
STARTCHAR braceleft
ENCODING 123
SWIDTH 1 0
DWIDTH 6 0
BBX 6 13 0 -2
BITMAP
00
00
1C
30
30
18
70
18
30
30
1C
00
00
ENDCHAR
STARTCHAR bar
ENCODING 124
SWIDTH 1 0
DWIDTH 6 0
BBX 6 13 0 -2
BITMAP
00
00
30
30
30
30
30
30
30
30
30
00
00
ENDCHAR
STARTCHAR braceright
ENCODING 125
SWIDTH 1 0
DWIDTH 6 0
BBX 6 13 0 -2
BITMAP
00
00
E0
30
30
60
38
60
30
30
E0
00
00
ENDCHAR
STARTCHAR asciitilde
ENCODING 126
SWIDTH 1 0
DWIDTH 6 0
BBX 6 13 0 -2
BITMAP
00
00
68
F8
98
00
00
00
00
00
00
00
00
ENDCHAR
STARTCHAR delete
ENCODING 127
SWIDTH 1 0
DWIDTH 6 0
BBX 6 13 0 -2
BITMAP
00
00
00
00
00
00
00
00
00
00
00
00
00
ENDCHAR
STARTCHAR space
ENCODING 160
SWIDTH 1 0
DWIDTH 6 0
BBX 6 13 0 -2
BITMAP
00
00
00
00
00
00
00
00
00
00
00
00
00
ENDCHAR
STARTCHAR exclamdown
ENCODING 161
SWIDTH 1 0
DWIDTH 6 0
BBX 6 13 0 -2
BITMAP
00
30
30
00
30
30
30
30
30
30
30
00
00
ENDCHAR
STARTCHAR cent
ENCODING 162
SWIDTH 1 0
DWIDTH 6 0
BBX 6 13 0 -2
BITMAP
00
00
10
78
D4
D0
D0
D4
78
10
00
00
00
ENDCHAR
STARTCHAR sterling
ENCODING 163
SWIDTH 1 0
DWIDTH 6 0
BBX 6 13 0 -2
BITMAP
00
00
38
6C
60
60
F8
60
60
64
F8
00
00
ENDCHAR
STARTCHAR currency
ENCODING 164
SWIDTH 1 0
DWIDTH 6 0
BBX 6 13 0 -2
BITMAP
00
00
00
00
CC
FC
48
48
FC
CC
00
00
00
ENDCHAR
STARTCHAR yen
ENCODING 165
SWIDTH 1 0
DWIDTH 6 0
BBX 6 13 0 -2
BITMAP
00
00
CC
CC
78
78
FC
30
FC
30
30
00
00
ENDCHAR
STARTCHAR brokenbar
ENCODING 166
SWIDTH 1 0
DWIDTH 6 0
BBX 6 13 0 -2
BITMAP
00
30
30
30
30
00
00
30
30
30
30
00
00
ENDCHAR
STARTCHAR section
ENCODING 167
SWIDTH 1 0
DWIDTH 6 0
BBX 6 13 0 -2
BITMAP
00
78
CC
C0
78
CC
CC
78
0C
CC
78
00
00
ENDCHAR
STARTCHAR dieresis
ENCODING 168
SWIDTH 1 0
DWIDTH 6 0
BBX 6 13 0 -2
BITMAP
00
00
CC
CC
00
00
00
00
00
00
00
00
00
ENDCHAR
STARTCHAR copyright
ENCODING 169
SWIDTH 1 0
DWIDTH 6 0
BBX 6 13 0 -2
BITMAP
00
00
78
CC
B4
EC
E4
EC
B4
CC
78
00
00
ENDCHAR
STARTCHAR ordfeminine
ENCODING 170
SWIDTH 1 0
DWIDTH 6 0
BBX 6 13 0 -2
BITMAP
00
00
F8
0C
FC
8C
FC
00
FC
00
00
00
00
ENDCHAR
STARTCHAR guillemotleft
ENCODING 171
SWIDTH 1 0
DWIDTH 6 0
BBX 6 13 0 -2
BITMAP
00
00
00
34
68
D0
A0
D0
68
34
00
00
00
ENDCHAR
STARTCHAR logicalnot
ENCODING 172
SWIDTH 1 0
DWIDTH 6 0
BBX 6 13 0 -2
BITMAP
00
00
00
00
00
FC
FC
04
04
00
00
00
00
ENDCHAR
STARTCHAR hyphen
ENCODING 173
SWIDTH 1 0
DWIDTH 6 0
BBX 6 13 0 -2
BITMAP
00
00
00
00
00
F8
F8
00
00
00
00
00
00
ENDCHAR
STARTCHAR registered
ENCODING 174
SWIDTH 1 0
DWIDTH 6 0
BBX 6 13 0 -2
BITMAP
00
00
78
CC
BC
AC
BC
B4
AC
CC
78
00
00
ENDCHAR
STARTCHAR macron
ENCODING 175
SWIDTH 1 0
DWIDTH 6 0
BBX 6 13 0 -2
BITMAP
00
00
F8
F8
00
00
00
00
00
00
00
00
00
ENDCHAR
STARTCHAR degree
ENCODING 176
SWIDTH 1 0
DWIDTH 6 0
BBX 6 13 0 -2
BITMAP
00
00
78
CC
CC
78
00
00
00
00
00
00
00
ENDCHAR
STARTCHAR plusminus
ENCODING 177
SWIDTH 1 0
DWIDTH 6 0
BBX 6 13 0 -2
BITMAP
00
00
30
30
FC
FC
30
30
00
FC
FC
00
00
ENDCHAR
STARTCHAR twosuperior
ENCODING 178
SWIDTH 1 0
DWIDTH 6 0
BBX 6 13 0 -2
BITMAP
00
E0
B0
30
60
C0
F0
00
00
00
00
00
00
ENDCHAR
STARTCHAR threesuperior
ENCODING 179
SWIDTH 1 0
DWIDTH 6 0
BBX 6 13 0 -2
BITMAP
00
E0
B0
60
30
B0
E0
00
00
00
00
00
00
ENDCHAR
STARTCHAR acute
ENCODING 180
SWIDTH 1 0
DWIDTH 6 0
BBX 6 13 0 -2
BITMAP
00
30
60
00
00
00
00
00
00
00
00
00
00
ENDCHAR
STARTCHAR mu
ENCODING 181
SWIDTH 1 0
DWIDTH 6 0
BBX 6 13 0 -2
BITMAP
00
00
00
00
00
CC
CC
CC
CC
CC
FC
80
00
ENDCHAR
STARTCHAR paragraph
ENCODING 182
SWIDTH 1 0
DWIDTH 6 0
BBX 6 13 0 -2
BITMAP
00
00
7C
FC
F4
F4
F4
74
34
34
34
00
00
ENDCHAR
STARTCHAR periodcentered
ENCODING 183
SWIDTH 1 0
DWIDTH 6 0
BBX 6 13 0 -2
BITMAP
00
00
00
00
00
30
30
00
00
00
00
00
00
ENDCHAR
STARTCHAR cedilla
ENCODING 184
SWIDTH 1 0
DWIDTH 6 0
BBX 6 13 0 -2
BITMAP
00
00
00
00
00
00
00
00
00
00
00
30
60
ENDCHAR
STARTCHAR onesuperior
ENCODING 185
SWIDTH 1 0
DWIDTH 6 0
BBX 6 13 0 -2
BITMAP
00
60
E0
60
60
60
F0
00
00
00
00
00
00
ENDCHAR
STARTCHAR ordmasculine
ENCODING 186
SWIDTH 1 0
DWIDTH 6 0
BBX 6 13 0 -2
BITMAP
00
70
F8
88
F8
70
00
F8
00
00
00
00
00
ENDCHAR
STARTCHAR guillemotright
ENCODING 187
SWIDTH 1 0
DWIDTH 6 0
BBX 6 13 0 -2
BITMAP
00
00
00
B0
58
2C
14
2C
58
B0
00
00
00
ENDCHAR
STARTCHAR onequarter
ENCODING 188
SWIDTH 1 0
DWIDTH 6 0
BBX 6 13 0 -2
BITMAP
00
60
E0
60
60
64
FC
1C
34
3C
0C
00
00
ENDCHAR
STARTCHAR onehalf
ENCODING 189
SWIDTH 1 0
DWIDTH 6 0
BBX 6 13 0 -2
BITMAP
00
60
E0
60
60
78
EC
0C
18
30
3C
00
00
ENDCHAR
STARTCHAR threequarters
ENCODING 190
SWIDTH 1 0
DWIDTH 6 0
BBX 6 13 0 -2
BITMAP
00
E0
B0
60
30
B4
EC
1C
34
3C
0C
00
00
ENDCHAR
STARTCHAR questiondown
ENCODING 191
SWIDTH 1 0
DWIDTH 6 0
BBX 6 13 0 -2
BITMAP
00
30
30
00
30
30
60
C0
CC
CC
78
00
00
ENDCHAR
STARTCHAR Agrave
ENCODING 192
SWIDTH 461 0
DWIDTH 6 0
BBX 6 13 0 -2
BITMAP
00
60
30
00
30
78
cc
cc
fc
cc
cc
00
00
ENDCHAR
STARTCHAR Aacute
ENCODING 193
SWIDTH 461 0
DWIDTH 6 0
BBX 6 13 0 -2
BITMAP
00
30
60
00
30
78
cc
cc
fc
cc
cc
00
00
ENDCHAR
STARTCHAR Acircumflex
ENCODING 194
SWIDTH 461 0
DWIDTH 6 0
BBX 6 13 0 -2
BITMAP
00
70
d8
00
30
78
cc
cc
fc
cc
cc
00
00
ENDCHAR
STARTCHAR Atilde
ENCODING 195
SWIDTH 461 0
DWIDTH 6 0
BBX 6 13 0 -2
BITMAP
00
68
b0
00
30
78
cc
cc
fc
cc
cc
00
00
ENDCHAR
STARTCHAR Adieresis
ENCODING 196
SWIDTH 461 0
DWIDTH 6 0
BBX 6 13 0 -2
BITMAP
00
d8
d8
00
30
78
cc
cc
fc
cc
cc
00
00
ENDCHAR
STARTCHAR Aring
ENCODING 197
SWIDTH 461 0
DWIDTH 6 0
BBX 6 13 0 -2
BITMAP
00
78
48
78
30
78
cc
cc
fc
cc
cc
00
00
ENDCHAR
STARTCHAR AE
ENCODING 198
SWIDTH 461 0
DWIDTH 6 0
BBX 6 13 0 -2
BITMAP
00
00
7c
b0
b0
b0
b8
f0
f0
b0
bc
00
00
ENDCHAR
STARTCHAR Ccedilla
ENCODING 199
SWIDTH 461 0
DWIDTH 6 0
BBX 6 13 0 -2
BITMAP
00
00
78
cc
c0
c0
c0
c0
c0
cc
78
30
60
ENDCHAR
STARTCHAR Egrave
ENCODING 200
SWIDTH 461 0
DWIDTH 6 0
BBX 6 13 0 -2
BITMAP
00
60
30
00
fc
c0
c0
f8
c0
c0
fc
00
00
ENDCHAR
STARTCHAR Eacute
ENCODING 201
SWIDTH 461 0
DWIDTH 6 0
BBX 6 13 0 -2
BITMAP
00
30
60
00
fc
c0
c0
f8
c0
c0
fc
00
00
ENDCHAR
STARTCHAR Ecircumflex
ENCODING 202
SWIDTH 461 0
DWIDTH 6 0
BBX 6 13 0 -2
BITMAP
00
70
d8
00
fc
c0
c0
f8
c0
c0
fc
00
00
ENDCHAR
STARTCHAR Edieresis
ENCODING 203
SWIDTH 461 0
DWIDTH 6 0
BBX 6 13 0 -2
BITMAP
00
d8
d8
00
fc
c0
c0
f8
c0
c0
fc
00
00
ENDCHAR
STARTCHAR Igrave
ENCODING 204
SWIDTH 461 0
DWIDTH 6 0
BBX 6 13 0 -2
BITMAP
00
60
30
00
78
30
30
30
30
30
78
00
00
ENDCHAR
STARTCHAR Iacute
ENCODING 205
SWIDTH 461 0
DWIDTH 6 0
BBX 6 13 0 -2
BITMAP
00
30
60
00
78
30
30
30
30
30
78
00
00
ENDCHAR
STARTCHAR Icircumflex
ENCODING 206
SWIDTH 461 0
DWIDTH 6 0
BBX 6 13 0 -2
BITMAP
00
70
d8
00
78
30
30
30
30
30
78
00
00
ENDCHAR
STARTCHAR Idieresis
ENCODING 207
SWIDTH 461 0
DWIDTH 6 0
BBX 6 13 0 -2
BITMAP
00
d8
d8
00
78
30
30
30
30
30
78
00
00
ENDCHAR
STARTCHAR Eth
ENCODING 208
SWIDTH 461 0
DWIDTH 6 0
BBX 6 13 0 -2
BITMAP
00
00
f8
6c
6c
6c
ec
6c
6c
6c
f8
00
00
ENDCHAR
STARTCHAR Ntilde
ENCODING 209
SWIDTH 461 0
DWIDTH 6 0
BBX 6 13 0 -2
BITMAP
00
68
b0
00
cc
ec
ec
fc
dc
dc
cc
00
00
ENDCHAR
STARTCHAR Ograve
ENCODING 210
SWIDTH 461 0
DWIDTH 6 0
BBX 6 13 0 -2
BITMAP
00
60
30
00
78
cc
cc
cc
cc
cc
78
00
00
ENDCHAR
STARTCHAR Oacute
ENCODING 211
SWIDTH 461 0
DWIDTH 6 0
BBX 6 13 0 -2
BITMAP
00
30
60
00
78
cc
cc
cc
cc
cc
78
00
00
ENDCHAR
STARTCHAR Ocircumflex
ENCODING 212
SWIDTH 461 0
DWIDTH 6 0
BBX 6 13 0 -2
BITMAP
00
70
d8
00
78
cc
cc
cc
cc
cc
78
00
00
ENDCHAR
STARTCHAR Otilde
ENCODING 213
SWIDTH 461 0
DWIDTH 6 0
BBX 6 13 0 -2
BITMAP
00
68
b0
00
78
cc
cc
cc
cc
cc
78
00
00
ENDCHAR
STARTCHAR Odieresis
ENCODING 214
SWIDTH 461 0
DWIDTH 6 0
BBX 6 13 0 -2
BITMAP
00
d8
d8
00
78
cc
cc
cc
cc
cc
78
00
00
ENDCHAR
STARTCHAR multiply
ENCODING 215
SWIDTH 461 0
DWIDTH 6 0
BBX 6 13 0 -2
BITMAP
00
00
00
00
00
cc
78
30
78
cc
00
00
00
ENDCHAR
STARTCHAR Oslash
ENCODING 216
SWIDTH 461 0
DWIDTH 6 0
BBX 6 13 0 -2
BITMAP
00
00
00
04
78
dc
dc
cc
ec
ec
78
80
00
ENDCHAR
STARTCHAR Ugrave
ENCODING 217
SWIDTH 461 0
DWIDTH 6 0
BBX 6 13 0 -2
BITMAP
00
60
30
00
cc
cc
cc
cc
cc
cc
78
00
00
ENDCHAR
STARTCHAR Uacute
ENCODING 218
SWIDTH 461 0
DWIDTH 6 0
BBX 6 13 0 -2
BITMAP
00
30
60
00
cc
cc
cc
cc
cc
cc
78
00
00
ENDCHAR
STARTCHAR Ucircumflex
ENCODING 219
SWIDTH 461 0
DWIDTH 6 0
BBX 6 13 0 -2
BITMAP
00
70
d8
00
cc
cc
cc
cc
cc
cc
78
00
00
ENDCHAR
STARTCHAR Udieresis
ENCODING 220
SWIDTH 461 0
DWIDTH 6 0
BBX 6 13 0 -2
BITMAP
00
d8
d8
00
cc
cc
cc
cc
cc
cc
78
00
00
ENDCHAR
STARTCHAR Yacute
ENCODING 221
SWIDTH 461 0
DWIDTH 6 0
BBX 6 13 0 -2
BITMAP
00
30
60
00
cc
48
78
30
30
30
30
00
00
ENDCHAR
STARTCHAR Thorn
ENCODING 222
SWIDTH 461 0
DWIDTH 6 0
BBX 6 13 0 -2
BITMAP
00
00
c0
f8
cc
cc
cc
f8
c0
c0
c0
00
00
ENDCHAR
STARTCHAR germandbls
ENCODING 223
SWIDTH 461 0
DWIDTH 6 0
BBX 6 13 0 -2
BITMAP
00
00
00
78
cc
cc
f8
cc
cc
cc
f8
80
00
ENDCHAR
STARTCHAR agrave
ENCODING 224
SWIDTH 461 0
DWIDTH 6 0
BBX 6 13 0 -2
BITMAP
00
60
30
00
00
78
0c
7c
cc
dc
7c
00
00
ENDCHAR
STARTCHAR aacute
ENCODING 225
SWIDTH 461 0
DWIDTH 6 0
BBX 6 13 0 -2
BITMAP
00
30
60
00
00
78
0c
7c
cc
dc
7c
00
00
ENDCHAR
STARTCHAR acircumflex
ENCODING 226
SWIDTH 461 0
DWIDTH 6 0
BBX 6 13 0 -2
BITMAP
00
70
d8
00
00
78
0c
7c
cc
dc
7c
00
00
ENDCHAR
STARTCHAR atilde
ENCODING 227
SWIDTH 461 0
DWIDTH 6 0
BBX 6 13 0 -2
BITMAP
00
68
b0
00
00
78
0c
7c
cc
dc
7c
00
00
ENDCHAR
STARTCHAR adieresis
ENCODING 228
SWIDTH 461 0
DWIDTH 6 0
BBX 6 13 0 -2
BITMAP
00
d8
d8
00
00
78
0c
7c
cc
dc
7c
00
00
ENDCHAR
STARTCHAR aring
ENCODING 229
SWIDTH 461 0
DWIDTH 6 0
BBX 6 13 0 -2
BITMAP
00
70
50
70
00
78
0c
7c
cc
dc
7c
00
00
ENDCHAR
STARTCHAR ae
ENCODING 230
SWIDTH 461 0
DWIDTH 6 0
BBX 6 13 0 -2
BITMAP
00
00
00
00
00
78
34
78
b0
b4
68
00
00
ENDCHAR
STARTCHAR ccedilla
ENCODING 231
SWIDTH 461 0
DWIDTH 6 0
BBX 6 13 0 -2
BITMAP
00
00
00
00
00
78
cc
c0
c0
cc
78
30
60
ENDCHAR
STARTCHAR egrave
ENCODING 232
SWIDTH 461 0
DWIDTH 6 0
BBX 6 13 0 -2
BITMAP
00
60
30
00
00
78
cc
fc
c0
c0
78
00
00
ENDCHAR
STARTCHAR eacute
ENCODING 233
SWIDTH 461 0
DWIDTH 6 0
BBX 6 13 0 -2
BITMAP
00
30
60
00
00
78
cc
fc
c0
c0
78
00
00
ENDCHAR
STARTCHAR ecircumflex
ENCODING 234
SWIDTH 461 0
DWIDTH 6 0
BBX 6 13 0 -2
BITMAP
00
70
d8
00
00
78
cc
fc
c0
c0
78
00
00
ENDCHAR
STARTCHAR edieresis
ENCODING 235
SWIDTH 461 0
DWIDTH 6 0
BBX 6 13 0 -2
BITMAP
00
d8
d8
00
00
78
cc
fc
c0
c0
78
00
00
ENDCHAR
STARTCHAR igrave
ENCODING 236
SWIDTH 461 0
DWIDTH 6 0
BBX 6 13 0 -2
BITMAP
00
60
30
00
00
70
30
30
30
30
78
00
00
ENDCHAR
STARTCHAR iacute
ENCODING 237
SWIDTH 461 0
DWIDTH 6 0
BBX 6 13 0 -2
BITMAP
00
30
60
00
00
70
30
30
30
30
78
00
00
ENDCHAR
STARTCHAR icircumflex
ENCODING 238
SWIDTH 461 0
DWIDTH 6 0
BBX 6 13 0 -2
BITMAP
00
70
d8
00
00
70
30
30
30
30
78
00
00
ENDCHAR
STARTCHAR idieresis
ENCODING 239
SWIDTH 461 0
DWIDTH 6 0
BBX 6 13 0 -2
BITMAP
00
d8
d8
00
00
70
30
30
30
30
78
00
00
ENDCHAR
STARTCHAR eth
ENCODING 240
SWIDTH 461 0
DWIDTH 6 0
BBX 6 13 0 -2
BITMAP
00
48
30
30
50
78
cc
cc
cc
cc
78
00
00
ENDCHAR
STARTCHAR ntilde
ENCODING 241
SWIDTH 461 0
DWIDTH 6 0
BBX 6 13 0 -2
BITMAP
00
68
b0
00
00
f8
ec
cc
cc
cc
cc
00
00
ENDCHAR
STARTCHAR ograve
ENCODING 242
SWIDTH 461 0
DWIDTH 6 0
BBX 6 13 0 -2
BITMAP
00
60
30
00
00
78
cc
cc
cc
cc
78
00
00
ENDCHAR
STARTCHAR oacute
ENCODING 243
SWIDTH 461 0
DWIDTH 6 0
BBX 6 13 0 -2
BITMAP
00
30
60
00
00
78
cc
cc
cc
cc
78
00
00
ENDCHAR
STARTCHAR ocircumflex
ENCODING 244
SWIDTH 461 0
DWIDTH 6 0
BBX 6 13 0 -2
BITMAP
00
70
d8
00
00
78
cc
cc
cc
cc
78
00
00
ENDCHAR
STARTCHAR otilde
ENCODING 245
SWIDTH 461 0
DWIDTH 6 0
BBX 6 13 0 -2
BITMAP
00
68
b0
00
00
78
cc
cc
cc
cc
78
00
00
ENDCHAR
STARTCHAR odieresis
ENCODING 246
SWIDTH 461 0
DWIDTH 6 0
BBX 6 13 0 -2
BITMAP
00
d8
d8
00
00
78
cc
cc
cc
cc
78
00
00
ENDCHAR
STARTCHAR divide
ENCODING 247
SWIDTH 461 0
DWIDTH 6 0
BBX 6 13 0 -2
BITMAP
00
00
00
30
30
00
fc
00
30
30
00
00
00
ENDCHAR
STARTCHAR oslash
ENCODING 248
SWIDTH 461 0
DWIDTH 6 0
BBX 6 13 0 -2
BITMAP
00
00
00
04
78
cc
dc
cc
ec
cc
78
80
00
ENDCHAR
STARTCHAR ugrave
ENCODING 249
SWIDTH 461 0
DWIDTH 6 0
BBX 6 13 0 -2
BITMAP
00
60
30
00
00
cc
cc
cc
cc
dc
7c
00
00
ENDCHAR
STARTCHAR uacute
ENCODING 250
SWIDTH 461 0
DWIDTH 6 0
BBX 6 13 0 -2
BITMAP
00
30
60
00
00
cc
cc
cc
cc
dc
7c
00
00
ENDCHAR
STARTCHAR ucircumflex
ENCODING 251
SWIDTH 461 0
DWIDTH 6 0
BBX 6 13 0 -2
BITMAP
00
70
d8
00
00
cc
cc
cc
cc
dc
7c
00
00
ENDCHAR
STARTCHAR udieresis
ENCODING 252
SWIDTH 461 0
DWIDTH 6 0
BBX 6 13 0 -2
BITMAP
00
d8
d8
00
00
cc
cc
cc
cc
dc
7c
00
00
ENDCHAR
STARTCHAR yacute
ENCODING 253
SWIDTH 461 0
DWIDTH 6 0
BBX 6 13 0 -2
BITMAP
00
30
60
00
00
cc
cc
cc
dc
7c
0c
cc
78
ENDCHAR
STARTCHAR thorn
ENCODING 254
SWIDTH 461 0
DWIDTH 6 0
BBX 6 13 0 -2
BITMAP
00
00
00
c0
c0
f8
ec
cc
ec
f8
c0
c0
c0
ENDCHAR
STARTCHAR ydieresis
ENCODING 255
SWIDTH 461 0
DWIDTH 6 0
BBX 6 13 0 -2
BITMAP
00
d8
d8
00
00
cc
cc
cc
dc
7c
0c
cc
78
ENDCHAR
STARTCHAR uni0400
ENCODING 1024
SWIDTH 461 0
DWIDTH 6 0
BBX 6 13 0 -2
BITMAP
00
60
30
00
fc
c0
c0
f8
c0
c0
fc
00
00
ENDCHAR
STARTCHAR afii10023
ENCODING 1025
SWIDTH 461 0
DWIDTH 6 0
BBX 6 13 0 -2
BITMAP
00
d8
d8
00
fc
c0
c0
f8
c0
c0
fc
00
00
ENDCHAR
STARTCHAR afii10051
ENCODING 1026
SWIDTH 1 0
DWIDTH 6 0
BBX 6 13 0 -2
BITMAP
00
00
F8
C0
C0
C0
F8
CC
CC
CC
D8
00
00
ENDCHAR
STARTCHAR afii10052
ENCODING 1027
SWIDTH 1 0
DWIDTH 6 0
BBX 6 13 0 -2
BITMAP
00
30
60
00
FC
C0
C0
C0
C0
C0
C0
00
00
ENDCHAR
STARTCHAR afii10053
ENCODING 1028
SWIDTH 1 0
DWIDTH 6 0
BBX 6 13 0 -2
BITMAP
00
00
78
CC
C0
C0
F0
C0
C0
CC
78
00
00
ENDCHAR
STARTCHAR afii10054
ENCODING 1029
SWIDTH 1 0
DWIDTH 6 0
BBX 6 13 0 -2
BITMAP
00
00
78
CC
C0
C0
78
0C
0C
CC
78
00
00
ENDCHAR
STARTCHAR afii10055
ENCODING 1030
SWIDTH 1 0
DWIDTH 6 0
BBX 6 13 0 -2
BITMAP
00
00
78
30
30
30
30
30
30
30
78
00
00
ENDCHAR
STARTCHAR afii10056
ENCODING 1031
SWIDTH 461 0
DWIDTH 6 0
BBX 6 13 0 -2
BITMAP
00
d8
d8
00
78
30
30
30
30
30
78
00
00
ENDCHAR
STARTCHAR afii10057
ENCODING 1032
SWIDTH 1 0
DWIDTH 6 0
BBX 6 13 0 -2
BITMAP
00
00
3C
0C
0C
0C
0C
0C
0C
CC
78
00
00
ENDCHAR
STARTCHAR afii10058
ENCODING 1033
SWIDTH 1 0
DWIDTH 6 0
BBX 6 13 0 -2
BITMAP
00
00
70
B0
B0
B0
F8
B4
B4
B4
B8
00
00
ENDCHAR
STARTCHAR afii10059
ENCODING 1034
SWIDTH 1 0
DWIDTH 6 0
BBX 6 13 0 -2
BITMAP
00
00
B0
B0
B0
B0
F8
B4
B4
B4
B8
00
00
ENDCHAR
STARTCHAR afii10060
ENCODING 1035
SWIDTH 1 0
DWIDTH 6 0
BBX 6 13 0 -2
BITMAP
00
00
F8
C0
C0
C0
F8
CC
CC
CC
CC
00
00
ENDCHAR
STARTCHAR afii10061
ENCODING 1036
SWIDTH 1 0
DWIDTH 6 0
BBX 6 13 0 -2
BITMAP
00
30
60
00
CC
D8
F0
E0
F0
D8
CC
00
00
ENDCHAR
STARTCHAR afii10062
ENCODING 1038
SWIDTH 1 0
DWIDTH 6 0
BBX 6 13 0 -2
BITMAP
00
78
00
CC
CC
CC
7C
0C
0C
CC
78
00
00
ENDCHAR
STARTCHAR afii10145
ENCODING 1039
SWIDTH 1 0
DWIDTH 6 0
BBX 6 13 0 -2
BITMAP
00
00
CC
CC
CC
CC
CC
CC
CC
CC
FC
30
30
ENDCHAR
STARTCHAR afii10017
ENCODING 1040
SWIDTH 1 0
DWIDTH 6 0
BBX 6 13 0 -2
BITMAP
00
00
30
78
CC
CC
CC
FC
CC
CC
CC
00
00
ENDCHAR
STARTCHAR afii10018
ENCODING 1041
SWIDTH 1 0
DWIDTH 6 0
BBX 6 13 0 -2
BITMAP
00
00
FC
C0
C0
C0
F8
CC
CC
CC
F8
00
00
ENDCHAR
STARTCHAR afii10019
ENCODING 1042
SWIDTH 1 0
DWIDTH 6 0
BBX 6 13 0 -2
BITMAP
00
00
F8
6C
6C
6C
78
6C
6C
6C
F8
00
00
ENDCHAR
STARTCHAR afii10020
ENCODING 1043
SWIDTH 1 0
DWIDTH 6 0
BBX 6 13 0 -2
BITMAP
00
00
FC
C0
C0
C0
C0
C0
C0
C0
C0
00
00
ENDCHAR
STARTCHAR afii10021
ENCODING 1044
SWIDTH 1 0
DWIDTH 6 0
BBX 6 13 0 -2
BITMAP
00
00
38
58
58
58
58
58
58
58
FC
CC
00
ENDCHAR
STARTCHAR afii10022
ENCODING 1045
SWIDTH 1 0
DWIDTH 6 0
BBX 6 13 0 -2
BITMAP
00
00
FC
C0
C0
C0
F8
C0
C0
C0
FC
00
00
ENDCHAR
STARTCHAR afii10024
ENCODING 1046
SWIDTH 1 0
DWIDTH 6 0
BBX 6 13 0 -2
BITMAP
00
00
B4
B4
FC
78
30
78
FC
B4
B4
00
00
ENDCHAR
STARTCHAR afii10025
ENCODING 1047
SWIDTH 1 0
DWIDTH 6 0
BBX 6 13 0 -2
BITMAP
00
00
78
CC
0C
0C
38
0C
0C
CC
78
00
00
ENDCHAR
STARTCHAR afii10026
ENCODING 1048
SWIDTH 1 0
DWIDTH 6 0
BBX 6 13 0 -2
BITMAP
00
00
CC
CC
DC
DC
FC
FC
EC
EC
CC
00
00
ENDCHAR
STARTCHAR afii10027
ENCODING 1049
SWIDTH 1 0
DWIDTH 6 0
BBX 6 13 0 -2
BITMAP
00
78
00
CC
DC
DC
FC
FC
EC
EC
CC
00
00
ENDCHAR
STARTCHAR afii10028
ENCODING 1050
SWIDTH 1 0
DWIDTH 6 0
BBX 6 13 0 -2
BITMAP
00
00
CC
CC
D8
F0
E0
F0
D8
CC
CC
00
00
ENDCHAR
STARTCHAR afii10029
ENCODING 1051
SWIDTH 1 0
DWIDTH 6 0
BBX 6 13 0 -2
BITMAP
00
00
3C
6C
6C
6C
6C
6C
6C
6C
CC
00
00
ENDCHAR
STARTCHAR afii10030
ENCODING 1052
SWIDTH 1 0
DWIDTH 6 0
BBX 6 13 0 -2
BITMAP
00
00
CC
CC
FC
FC
FC
CC
CC
CC
CC
00
00
ENDCHAR
STARTCHAR afii10031
ENCODING 1053
SWIDTH 1 0
DWIDTH 6 0
BBX 6 13 0 -2
BITMAP
00
00
CC
CC
CC
CC
FC
CC
CC
CC
CC
00
00
ENDCHAR
STARTCHAR afii10032
ENCODING 1054
SWIDTH 1 0
DWIDTH 6 0
BBX 6 13 0 -2
BITMAP
00
00
78
CC
CC
CC
CC
CC
CC
CC
78
00
00
ENDCHAR
STARTCHAR afii10033
ENCODING 1055
SWIDTH 1 0
DWIDTH 6 0
BBX 6 13 0 -2
BITMAP
00
00
FC
CC
CC
CC
CC
CC
CC
CC
CC
00
00
ENDCHAR
STARTCHAR afii10034
ENCODING 1056
SWIDTH 1 0
DWIDTH 6 0
BBX 6 13 0 -2
BITMAP
00
00
F8
CC
CC
CC
F8
C0
C0
C0
C0
00
00
ENDCHAR
STARTCHAR afii10035
ENCODING 1057
SWIDTH 1 0
DWIDTH 6 0
BBX 6 13 0 -2
BITMAP
00
00
78
CC
C0
C0
C0
C0
C0
CC
78
00
00
ENDCHAR
STARTCHAR afii10036
ENCODING 1058
SWIDTH 1 0
DWIDTH 6 0
BBX 6 13 0 -2
BITMAP
00
00
FC
30
30
30
30
30
30
30
30
00
00
ENDCHAR
STARTCHAR afii10037
ENCODING 1059
SWIDTH 1 0
DWIDTH 6 0
BBX 6 13 0 -2
BITMAP
00
00
CC
CC
CC
CC
7C
0C
0C
CC
78
00
00
ENDCHAR
STARTCHAR afii10038
ENCODING 1060
SWIDTH 1 0
DWIDTH 6 0
BBX 6 13 0 -2
BITMAP
00
00
30
78
FC
B4
B4
B4
FC
78
30
00
00
ENDCHAR
STARTCHAR afii10039
ENCODING 1061
SWIDTH 1 0
DWIDTH 6 0
BBX 6 13 0 -2
BITMAP
00
00
CC
CC
78
78
30
78
78
CC
CC
00
00
ENDCHAR
STARTCHAR afii10040
ENCODING 1062
SWIDTH 1 0
DWIDTH 6 0
BBX 6 13 0 -2
BITMAP
00
00
D8
D8
D8
D8
D8
D8
D8
D8
FC
0C
00
ENDCHAR
STARTCHAR afii10041
ENCODING 1063
SWIDTH 1 0
DWIDTH 6 0
BBX 6 13 0 -2
BITMAP
00
00
CC
CC
CC
CC
7C
0C
0C
0C
0C
00
00
ENDCHAR
STARTCHAR afii10042
ENCODING 1064
SWIDTH 1 0
DWIDTH 6 0
BBX 6 13 0 -2
BITMAP
00
00
CC
CC
FC
FC
FC
FC
FC
FC
FC
00
00
ENDCHAR
STARTCHAR afii10043
ENCODING 1065
SWIDTH 1 0
DWIDTH 6 0
BBX 6 13 0 -2
BITMAP
00
00
CC
CC
FC
FC
FC
FC
FC
FC
FC
0C
00
ENDCHAR
STARTCHAR afii10044
ENCODING 1066
SWIDTH 1 0
DWIDTH 6 0
BBX 6 13 0 -2
BITMAP
00
00
E0
60
60
60
78
6C
6C
6C
78
00
00
ENDCHAR
STARTCHAR afii10045
ENCODING 1067
SWIDTH 1 0
DWIDTH 6 0
BBX 6 13 0 -2
BITMAP
00
00
CC
CC
CC
CC
F4
D8
D8
D8
F4
00
00
ENDCHAR
STARTCHAR afii10046
ENCODING 1068
SWIDTH 1 0
DWIDTH 6 0
BBX 6 13 0 -2
BITMAP
00
00
C0
C0
C0
C0
F8
CC
CC
CC
F8
00
00
ENDCHAR
STARTCHAR afii10047
ENCODING 1069
SWIDTH 1 0
DWIDTH 6 0
BBX 6 13 0 -2
BITMAP
00
00
78
CC
0C
0C
3C
0C
0C
CC
78
00
00
ENDCHAR
STARTCHAR afii10048
ENCODING 1070
SWIDTH 1 0
DWIDTH 6 0
BBX 6 13 0 -2
BITMAP
00
00
D8
FC
EC
EC
EC
EC
EC
FC
D8
00
00
ENDCHAR
STARTCHAR afii10049
ENCODING 1071
SWIDTH 1 0
DWIDTH 6 0
BBX 6 13 0 -2
BITMAP
00
00
7C
CC
CC
CC
7C
3C
6C
CC
CC
00
00
ENDCHAR
STARTCHAR afii10065
ENCODING 1072
SWIDTH 1 0
DWIDTH 6 0
BBX 6 13 0 -2
BITMAP
00
00
00
00
00
78
0C
7C
CC
DC
7C
00
00
ENDCHAR
STARTCHAR afii10066
ENCODING 1073
SWIDTH 1 0
DWIDTH 6 0
BBX 6 13 0 -2
BITMAP
00
00
0C
78
C0
F8
EC
CC
CC
CC
78
00
00
ENDCHAR
STARTCHAR afii10067
ENCODING 1074
SWIDTH 1 0
DWIDTH 6 0
BBX 6 13 0 -2
BITMAP
00
00
00
00
00
F8
CC
F8
CC
CC
F8
00
00
ENDCHAR
STARTCHAR afii10068
ENCODING 1075
SWIDTH 1 0
DWIDTH 6 0
BBX 6 13 0 -2
BITMAP
00
00
00
00
00
F8
C0
C0
C0
C0
C0
00
00
ENDCHAR
STARTCHAR afii10069
ENCODING 1076
SWIDTH 1 0
DWIDTH 6 0
BBX 6 13 0 -2
BITMAP
00
00
00
00
00
38
58
58
58
58
FC
CC
00
ENDCHAR
STARTCHAR afii10070
ENCODING 1077
SWIDTH 1 0
DWIDTH 6 0
BBX 6 13 0 -2
BITMAP
00
00
00
00
00
78
CC
FC
C0
C0
78
00
00
ENDCHAR
STARTCHAR afii10072
ENCODING 1078
SWIDTH 1 0
DWIDTH 6 0
BBX 6 13 0 -2
BITMAP
00
00
00
00
00
B4
78
30
78
FC
B4
00
00
ENDCHAR
STARTCHAR afii10073
ENCODING 1079
SWIDTH 1 0
DWIDTH 6 0
BBX 6 13 0 -2
BITMAP
00
00
00
00
00
F8
0C
78
0C
0C
F8
00
00
ENDCHAR
STARTCHAR afii10074
ENCODING 1080
SWIDTH 1 0
DWIDTH 6 0
BBX 6 13 0 -2
BITMAP
00
00
00
00
00
CC
CC
DC
FC
EC
CC
00
00
ENDCHAR
STARTCHAR afii10075
ENCODING 1081
SWIDTH 1 0
DWIDTH 6 0
BBX 6 13 0 -2
BITMAP
00
00
00
78
00
CC
CC
DC
FC
EC
CC
00
00
ENDCHAR
STARTCHAR afii10076
ENCODING 1082
SWIDTH 1 0
DWIDTH 6 0
BBX 6 13 0 -2
BITMAP
00
00
00
00
00
D8
F0
E0
F0
D8
CC
00
00
ENDCHAR
STARTCHAR afii10077
ENCODING 1083
SWIDTH 1 0
DWIDTH 6 0
BBX 6 13 0 -2
BITMAP
00
00
00
00
00
3C
6C
6C
6C
6C
CC
00
00
ENDCHAR
STARTCHAR afii10078
ENCODING 1084
SWIDTH 1 0
DWIDTH 6 0
BBX 6 13 0 -2
BITMAP
00
00
00
00
00
CC
FC
FC
FC
CC
CC
00
00
ENDCHAR
STARTCHAR afii10079
ENCODING 1085
SWIDTH 1 0
DWIDTH 6 0
BBX 6 13 0 -2
BITMAP
00
00
00
00
00
CC
CC
FC
CC
CC
CC
00
00
ENDCHAR
STARTCHAR afii10080
ENCODING 1086
SWIDTH 1 0
DWIDTH 6 0
BBX 6 13 0 -2
BITMAP
00
00
00
00
00
78
CC
CC
CC
CC
78
00
00
ENDCHAR
STARTCHAR afii10081
ENCODING 1087
SWIDTH 1 0
DWIDTH 6 0
BBX 6 13 0 -2
BITMAP
00
00
00
00
00
FC
CC
CC
CC
CC
CC
00
00
ENDCHAR
STARTCHAR afii10082
ENCODING 1088
SWIDTH 1 0
DWIDTH 6 0
BBX 6 13 0 -2
BITMAP
00
00
00
00
00
F8
EC
CC
EC
F8
C0
C0
C0
ENDCHAR
STARTCHAR afii10083
ENCODING 1089
SWIDTH 1 0
DWIDTH 6 0
BBX 6 13 0 -2
BITMAP
00
00
00
00
00
78
CC
C0
C0
CC
78
00
00
ENDCHAR
STARTCHAR afii10084
ENCODING 1090
SWIDTH 1 0
DWIDTH 6 0
BBX 6 13 0 -2
BITMAP
00
00
00
00
00
FC
30
30
30
30
30
00
00
ENDCHAR
STARTCHAR afii10085
ENCODING 1091
SWIDTH 1 0
DWIDTH 6 0
BBX 6 13 0 -2
BITMAP
00
00
00
00
00
CC
CC
CC
DC
7C
0C
CC
78
ENDCHAR
STARTCHAR afii10086
ENCODING 1092
SWIDTH 1 0
DWIDTH 6 0
BBX 6 13 0 -2
BITMAP
00
00
00
00
30
78
B4
B4
B4
78
30
30
30
ENDCHAR
STARTCHAR afii10087
ENCODING 1093
SWIDTH 1 0
DWIDTH 6 0
BBX 6 13 0 -2
BITMAP
00
00
00
00
00
CC
78
30
30
78
CC
00
00
ENDCHAR
STARTCHAR afii10088
ENCODING 1094
SWIDTH 1 0
DWIDTH 6 0
BBX 6 13 0 -2
BITMAP
00
00
00
00
00
D8
D8
D8
D8
D8
FC
0C
00
ENDCHAR
STARTCHAR afii10089
ENCODING 1095
SWIDTH 1 0
DWIDTH 6 0
BBX 6 13 0 -2
BITMAP
00
00
00
00
00
CC
CC
CC
7C
0C
0C
00
00
ENDCHAR
STARTCHAR afii10090
ENCODING 1096
SWIDTH 1 0
DWIDTH 6 0
BBX 6 13 0 -2
BITMAP
00
00
00
00
00
CC
FC
FC
FC
FC
FC
00
00
ENDCHAR
STARTCHAR afii10091
ENCODING 1097
SWIDTH 1 0
DWIDTH 6 0
BBX 6 13 0 -2
BITMAP
00
00
00
00
00
CC
FC
FC
FC
FC
FC
0C
00
ENDCHAR
STARTCHAR afii10092
ENCODING 1098
SWIDTH 1 0
DWIDTH 6 0
BBX 6 13 0 -2
BITMAP
00
00
00
00
00
E0
60
78
6C
6C
78
00
00
ENDCHAR
STARTCHAR afii10093
ENCODING 1099
SWIDTH 1 0
DWIDTH 6 0
BBX 6 13 0 -2
BITMAP
00
00
00
00
00
CC
CC
F4
D8
D8
F4
00
00
ENDCHAR
STARTCHAR afii10094
ENCODING 1100
SWIDTH 1 0
DWIDTH 6 0
BBX 6 13 0 -2
BITMAP
00
00
00
00
00
C0
C0
F8
CC
CC
F8
00
00
ENDCHAR
STARTCHAR afii10095
ENCODING 1101
SWIDTH 1 0
DWIDTH 6 0
BBX 6 13 0 -2
BITMAP
00
00
00
00
00
78
CC
3C
0C
CC
78
00
00
ENDCHAR
STARTCHAR afii10096
ENCODING 1102
SWIDTH 1 0
DWIDTH 6 0
BBX 6 13 0 -2
BITMAP
00
00
00
00
00
D8
FC
EC
EC
FC
D8
00
00
ENDCHAR
STARTCHAR afii10097
ENCODING 1103
SWIDTH 1 0
DWIDTH 6 0
BBX 6 13 0 -2
BITMAP
00
00
00
00
00
7C
CC
CC
7C
6C
CC
00
00
ENDCHAR
STARTCHAR uni0450
ENCODING 1104
SWIDTH 461 0
DWIDTH 6 0
BBX 6 13 0 -2
BITMAP
00
60
30
00
00
78
cc
fc
c0
c0
78
00
00
ENDCHAR
STARTCHAR afii10071
ENCODING 1105
SWIDTH 461 0
DWIDTH 6 0
BBX 6 13 0 -2
BITMAP
00
d8
d8
00
00
78
cc
fc
c0
c0
78
00
00
ENDCHAR
STARTCHAR afii10099
ENCODING 1106
SWIDTH 1 0
DWIDTH 6 0
BBX 6 13 0 -2
BITMAP
00
00
C0
F0
C0
F8
EC
CC
CC
CC
CC
0C
38
ENDCHAR
STARTCHAR afii10100
ENCODING 1107
SWIDTH 1 0
DWIDTH 6 0
BBX 6 13 0 -2
BITMAP
00
30
60
00
00
F8
C0
C0
C0
C0
C0
00
00
ENDCHAR
STARTCHAR afii10101
ENCODING 1108
SWIDTH 1 0
DWIDTH 6 0
BBX 6 13 0 -2
BITMAP
00
00
00
00
00
78
CC
F0
C0
CC
78
00
00
ENDCHAR
STARTCHAR afii10102
ENCODING 1109
SWIDTH 1 0
DWIDTH 6 0
BBX 6 13 0 -2
BITMAP
00
00
00
00
00
78
CC
70
18
CC
78
00
00
ENDCHAR
STARTCHAR afii10103
ENCODING 1110
SWIDTH 1 0
DWIDTH 6 0
BBX 6 13 0 -2
BITMAP
00
00
00
30
00
70
30
30
30
30
78
00
00
ENDCHAR
STARTCHAR afii10104
ENCODING 1111
SWIDTH 461 0
DWIDTH 6 0
BBX 6 13 0 -2
BITMAP
00
d8
d8
00
00
70
30
30
30
30
78
00
00
ENDCHAR
STARTCHAR afii10105
ENCODING 1112
SWIDTH 1 0
DWIDTH 6 0
BBX 6 13 0 -2
BITMAP
00
00
00
18
00
38
18
18
18
18
D8
D8
70
ENDCHAR
STARTCHAR afii10106
ENCODING 1113
SWIDTH 1 0
DWIDTH 6 0
BBX 6 13 0 -2
BITMAP
00
00
00
00
00
70
B0
B8
B4
B4
B8
00
00
ENDCHAR
STARTCHAR afii10107
ENCODING 1114
SWIDTH 1 0
DWIDTH 6 0
BBX 6 13 0 -2
BITMAP
00
00
00
00
00
B0
B0
F8
B4
B4
B8
00
00
ENDCHAR
STARTCHAR afii10108
ENCODING 1115
SWIDTH 1 0
DWIDTH 6 0
BBX 6 13 0 -2
BITMAP
00
00
C0
F0
C0
F8
EC
CC
CC
CC
CC
00
00
ENDCHAR
STARTCHAR afii10109
ENCODING 1116
SWIDTH 1 0
DWIDTH 6 0
BBX 6 13 0 -2
BITMAP
00
30
60
00
00
D8
F0
E0
F0
D8
CC
00
00
ENDCHAR
STARTCHAR afii10110
ENCODING 1118
SWIDTH 1 0
DWIDTH 6 0
BBX 6 13 0 -2
BITMAP
00
00
00
78
00
CC
CC
CC
DC
7C
0C
CC
78
ENDCHAR
STARTCHAR afii10193
ENCODING 1119
SWIDTH 1 0
DWIDTH 6 0
BBX 6 13 0 -2
BITMAP
00
00
00
00
00
CC
CC
CC
CC
CC
FC
30
30
ENDCHAR
STARTCHAR afii10146
ENCODING 1122
SWIDTH 1 0
DWIDTH 6 0
BBX 6 13 0 -2
BITMAP
00
00
60
F0
60
60
78
6C
6C
6C
78
00
00
ENDCHAR
STARTCHAR afii10194
ENCODING 1123
SWIDTH 1 0
DWIDTH 6 0
BBX 6 13 0 -2
BITMAP
00
00
60
60
60
F0
60
78
6C
6C
78
00
00
ENDCHAR
STARTCHAR uni0470
ENCODING 1136
SWIDTH 1 0
DWIDTH 6 0
BBX 6 13 0 -2
BITMAP
00
00
B4
B4
B4
B4
FC
78
30
30
30
00
00
ENDCHAR
STARTCHAR uni0471
ENCODING 1137
SWIDTH 1 0
DWIDTH 6 0
BBX 6 13 0 -2
BITMAP
00
00
00
00
30
B4
B4
B4
B4
78
30
30
30
ENDCHAR
STARTCHAR afii10147
ENCODING 1138
SWIDTH 1 0
DWIDTH 6 0
BBX 6 13 0 -2
BITMAP
00
00
78
CC
CC
CC
FC
CC
CC
CC
78
00
00
ENDCHAR
STARTCHAR afii10195
ENCODING 1139
SWIDTH 1 0
DWIDTH 6 0
BBX 6 13 0 -2
BITMAP
00
00
00
00
00
78
CC
FC
CC
CC
78
00
00
ENDCHAR
STARTCHAR afii10148
ENCODING 1140
SWIDTH 1 0
DWIDTH 6 0
BBX 6 13 0 -2
BITMAP
00
00
C4
CC
CC
68
78
78
30
30
30
00
00
ENDCHAR
STARTCHAR afii10196
ENCODING 1141
SWIDTH 1 0
DWIDTH 6 0
BBX 6 13 0 -2
BITMAP
00
00
00
00
00
C4
CC
78
78
30
30
00
00
ENDCHAR
STARTCHAR afii10050
ENCODING 1168
SWIDTH 1 0
DWIDTH 6 0
BBX 6 13 0 -2
BITMAP
00
0C
FC
C0
C0
C0
C0
C0
C0
C0
C0
00
00
ENDCHAR
STARTCHAR afii10098
ENCODING 1169
SWIDTH 1 0
DWIDTH 6 0
BBX 6 13 0 -2
BITMAP
00
00
00
00
18
F8
C0
C0
C0
C0
C0
00
00
ENDCHAR
STARTCHAR uni04AA
ENCODING 1194
SWIDTH 461 0
DWIDTH 6 0
BBX 6 13 0 -2
BITMAP
00
00
78
cc
c0
c0
c0
c0
c0
cc
78
30
60
ENDCHAR
STARTCHAR uni04AB
ENCODING 1195
SWIDTH 461 0
DWIDTH 6 0
BBX 6 13 0 -2
BITMAP
00
00
00
00
00
78
cc
c0
c0
cc
78
30
60
ENDCHAR
STARTCHAR uni04AE
ENCODING 1198
SWIDTH 1 0
DWIDTH 6 0
BBX 6 13 0 -2
BITMAP
00
00
CC
CC
78
78
30
30
30
30
30
00
00
ENDCHAR
STARTCHAR uni04C0
ENCODING 1216
SWIDTH 1 0
DWIDTH 6 0
BBX 6 13 0 -2
BITMAP
00
00
78
30
30
30
30
30
30
30
78
00
00
ENDCHAR
STARTCHAR uni04D2
ENCODING 1234
SWIDTH 461 0
DWIDTH 6 0
BBX 6 13 0 -2
BITMAP
00
d8
d8
00
30
78
cc
cc
fc
cc
cc
00
00
ENDCHAR
STARTCHAR uni04D3
ENCODING 1235
SWIDTH 461 0
DWIDTH 6 0
BBX 6 13 0 -2
BITMAP
00
d8
d8
00
00
78
0c
7c
cc
dc
7c
00
00
ENDCHAR
STARTCHAR uni04D4
ENCODING 1236
SWIDTH 461 0
DWIDTH 6 0
BBX 6 13 0 -2
BITMAP
00
00
7c
b0
b0
b0
b8
f0
f0
b0
bc
00
00
ENDCHAR
STARTCHAR uni04D5
ENCODING 1237
SWIDTH 461 0
DWIDTH 6 0
BBX 6 13 0 -2
BITMAP
00
00
00
00
00
78
34
78
b0
b4
68
00
00
ENDCHAR
STARTCHAR uni04E6
ENCODING 1254
SWIDTH 461 0
DWIDTH 6 0
BBX 6 13 0 -2
BITMAP
00
d8
d8
00
78
cc
cc
cc
cc
cc
78
00
00
ENDCHAR
STARTCHAR uni04E7
ENCODING 1255
SWIDTH 461 0
DWIDTH 6 0
BBX 6 13 0 -2
BITMAP
00
d8
d8
00
00
78
cc
cc
cc
cc
78
00
00
ENDCHAR
STARTCHAR uni04E8
ENCODING 1256
SWIDTH 1 0
DWIDTH 6 0
BBX 6 13 0 -2
BITMAP
00
00
78
CC
CC
CC
FC
CC
CC
CC
78
00
00
ENDCHAR
STARTCHAR uni04E9
ENCODING 1257
SWIDTH 1 0
DWIDTH 6 0
BBX 6 13 0 -2
BITMAP
00
00
00
00
00
78
CC
FC
CC
CC
78
00
00
ENDCHAR
ENDFONT
